<svg width="24" height="24" viewBox="0 0 24 24" fill="none" xmlns="http://www.w3.org/2000/svg">
<g id="fluent:delete-28-regular">
<path id="Vector" d="M9.85603 5.14293H14.1417C14.1417 4.57461 13.916 4.02956 13.5141 3.6277C13.1122 3.22583 12.5672 3.00007 11.9989 3.00007C11.4306 3.00007 10.8855 3.22583 10.4837 3.6277C10.0818 4.02956 9.85603 4.57461 9.85603 5.14293ZM8.57031 5.14293C8.57031 4.23361 8.93154 3.36154 9.57452 2.71856C10.2175 2.07558 11.0896 1.71436 11.9989 1.71436C12.9082 1.71436 13.7803 2.07558 14.4232 2.71856C15.0662 3.36154 15.4275 4.23361 15.4275 5.14293H20.7846C20.9551 5.14293 21.1186 5.21066 21.2392 5.33122C21.3597 5.45177 21.4275 5.61529 21.4275 5.78578C21.4275 5.95628 21.3597 6.11979 21.2392 6.24035C21.1186 6.36091 20.9551 6.42864 20.7846 6.42864H19.6617L18.6186 18.9455C18.5427 19.8561 18.1274 20.7049 17.455 21.3236C16.7827 21.9423 15.9023 22.2857 14.9886 22.2858H9.00917C8.09545 22.2857 7.21512 21.9423 6.54274 21.3236C5.87037 20.7049 5.45506 19.8561 5.37917 18.9455L4.33603 6.42864H3.21317C3.04267 6.42864 2.87916 6.36091 2.7586 6.24035C2.63804 6.11979 2.57031 5.95628 2.57031 5.78578C2.57031 5.61529 2.63804 5.45177 2.7586 5.33122C2.87916 5.21066 3.04267 5.14293 3.21317 5.14293H8.57031ZM6.6606 18.8384C6.70962 19.4276 6.97828 19.9768 7.4133 20.3772C7.84832 20.7777 8.41793 21 9.00917 21.0001H14.9886C15.5798 21 16.1495 20.7777 16.5845 20.3772C17.0195 19.9768 17.2882 19.4276 17.3372 18.8384L18.3726 6.42864H5.62603L6.6606 18.8384ZM10.0703 9.42864C10.2408 9.42864 10.4043 9.49637 10.5249 9.61693C10.6454 9.73749 10.7132 9.901 10.7132 10.0715V17.3572C10.7132 17.5277 10.6454 17.6912 10.5249 17.8118C10.4043 17.9323 10.2408 18.0001 10.0703 18.0001C9.89982 18.0001 9.7363 17.9323 9.61574 17.8118C9.49519 17.6912 9.42746 17.5277 9.42746 17.3572V10.0715C9.42746 9.901 9.49519 9.73749 9.61574 9.61693C9.7363 9.49637 9.89982 9.42864 10.0703 9.42864ZM14.5703 10.0715C14.5703 9.901 14.5026 9.73749 14.382 9.61693C14.2615 9.49637 14.098 9.42864 13.9275 9.42864C13.757 9.42864 13.5934 9.49637 13.4729 9.61693C13.3523 9.73749 13.2846 9.901 13.2846 10.0715V17.3572C13.2846 17.5277 13.3523 17.6912 13.4729 17.8118C13.5934 17.9323 13.757 18.0001 13.9275 18.0001C14.098 18.0001 14.2615 17.9323 14.382 17.8118C14.5026 17.6912 14.5703 17.5277 14.5703 17.3572V10.0715Z" fill="#BFBFBF"/>
</g>
</svg>
